<?xml version="1.0" encoding="UTF-8"?>
<svg width="47px" height="46px" viewBox="0 0 47 46" version="1.1" xmlns="http://www.w3.org/2000/svg" xmlns:xlink="http://www.w3.org/1999/xlink">
    <!-- Generator: Sketch 58 (84663) - https://sketch.com -->
    <title>triangle</title>
    <desc>Created with Sketch.</desc>
    <g id="Page-1" stroke="none" stroke-width="1" fill="none" fill-rule="evenodd">
        <g id="Dashboard-" transform="translate(-96.000000, -228.000000)" fill-rule="nonzero">
            <g id="triangle" transform="translate(96.000000, 228.000000)">
                <path d="M39.669862,46 L7.33013797,46 C4.78998297,46 2.43096075,44.7125689 1.09501678,42.5976787 C-0.240569159,40.4831389 -0.362279044,37.8424163 0.77320183,35.6185761 L16.9416319,3.96844061 C18.1827139,1.53650954 20.722153,0 23.5,0 C26.2778471,0 28.8172861,1.53650954 30.0583681,3.96844061 L46.2267983,35.6185761 C47.3622789,37.8424163 47.2405692,40.4831389 45.9049832,42.5976787 C44.5693972,44.7125689 42.210017,46 39.669862,46 Z" id="Path" fill="#FF7761"></path>
                <g id="Group" transform="translate(22.000000, 13.000000)" fill="#FFFFFF">
                    <path d="M1.53622164,0.0175713668 C2.33948864,0.0175713668 2.99076709,0.6373 2.99076709,1.40165441 L2.99076709,18.010651 C2.99076709,18.7750054 2.33948864,19.394734 1.53622164,19.394734 C0.732954545,19.394734 0.0816761818,18.7750054 0.0816761818,18.010651 L0.0816761818,1.40165441 C0.0816761818,0.6373 0.732954545,0.0175713668 1.53622164,0.0175713668 Z" id="Path"></path>
                    <polygon id="Path" points="0.0816761818 22.1629001 2.99076709 22.1629001 2.99076709 24.9310662 0.0816761818 24.9310662"></polygon>
                </g>
            </g>
        </g>
    </g>
</svg>