<?xml version="1.0" encoding="UTF-8"?>
<svg width="20px" height="20px" viewBox="0 0 20 20" version="1.1" xmlns="http://www.w3.org/2000/svg" xmlns:xlink="http://www.w3.org/1999/xlink">
    <!-- Generator: Sketch 58 (84663) - https://sketch.com -->
    <title>Group 4</title>
    <desc>Created with Sketch.</desc>
    <defs>
        <path d="M13.1071,6.0824 C11.9041,5.1264 10.3411,4.7824 8.8141,5.1374 C7.0251,5.5534 5.5881,6.9754 5.1511,8.7584 C4.7931,10.2234 5.0691,11.6904 5.9301,12.8884 C6.6301,13.8624 7.0001,14.9824 7.0001,16.1274 L7.0001,17.0004 C7.0001,18.6544 8.3461,20.0004 10.0001,20.0004 C11.6541,20.0004 13.0001,18.6544 13.0001,17.0004 L13.0001,16.1314 C13.0001,15.0324 13.3881,13.9014 14.1531,12.7694 C14.7071,11.9484 15.0001,10.9914 15.0001,10.0004 C15.0001,8.4654 14.3101,7.0384 13.1071,6.0824 L13.1071,6.0824 Z M19,9 L18,9 C17.447,9 17,9.447 17,10 C17,10.553 17.447,11 18,11 L19,11 C19.553,11 20,10.553 20,10 C20,9.447 19.553,9 19,9 L19,9 Z M2,9 L1,9 C0.447,9 0,9.447 0,10 C0,10.553 0.447,11 1,11 L2,11 C2.553,11 3,10.553 3,10 C3,9.447 2.553,9 2,9 L2,9 Z M10,3 C10.553,3 11,2.553 11,2 L11,1 C11,0.447 10.553,0 10,0 C9.447,0 9,0.447 9,1 L9,2 C9,2.553 9.447,3 10,3 L10,3 Z M17.707,2.293 C17.316,1.902 16.684,1.902 16.293,2.293 L15.293,3.293 C14.902,3.684 14.902,4.316 15.293,4.707 C15.488,4.902 15.744,5 16,5 C16.256,5 16.512,4.902 16.707,4.707 L17.707,3.707 C18.098,3.316 18.098,2.684 17.707,2.293 L17.707,2.293 Z M3.707,2.293 C3.316,1.902 2.684,1.902 2.293,2.293 C1.902,2.684 1.902,3.316 2.293,3.707 L3.293,4.707 C3.488,4.902 3.744,5 4,5 C4.256,5 4.512,4.902 4.707,4.707 C5.098,4.316 5.098,3.684 4.707,3.293 L3.707,2.293 Z M12.4961,11.6494 C11.9731,12.4234 11.5941,13.2094 11.3451,14.0004 L8.6731,14.0004 C8.4311,13.1984 8.0621,12.4284 7.5551,11.7214 C7.0401,11.0054 6.8771,10.1224 7.0951,9.2334 C7.3501,8.1924 8.2231,7.3284 9.2671,7.0854 C9.5171,7.0274 9.7641,6.9994 10.0071,6.9994 C10.6831,6.9994 11.3241,7.2204 11.8631,7.6484 C12.5861,8.2224 13.0001,9.0794 13.0001,10.0004 C13.0001,10.5904 12.8251,11.1614 12.4961,11.6494 L12.4961,11.6494 Z M11.0001,17.0004 C11.0001,17.5514 10.5521,18.0004 10.0001,18.0004 C9.4481,18.0004 9.0001,17.5514 9.0001,17.0004 L9.0001,16.1274 C9.0001,16.0844 8.9901,16.0434 8.9901,16.0004 L11.0111,16.0004 C11.0101,16.0444 11.0001,16.0874 11.0001,16.1314 L11.0001,17.0004 Z" id="path-1"></path>
    </defs>
    <g id="Page-1" stroke="none" stroke-width="1" fill="none" fill-rule="evenodd">
        <g id="Apply-for-Loan" transform="translate(-708.000000, -436.000000)">
            <g id="Group-4" transform="translate(708.000000, 436.000000)">
                <path d="M7.8906,14.99997 L12.1186,14.99997 C12.3146,14.00497 12.7456,13.06497 13.3246,12.20997 C13.7496,11.57897 13.9996,10.81997 13.9996,9.99997 C13.9996,7.47897 11.6656,5.50097 9.0406,6.11097 C7.6226,6.44097 6.4686,7.58197 6.1226,8.99597 C5.8186,10.24097 6.0996,11.40997 6.7426,12.30497 C7.3226,13.11197 7.7136,14.03297 7.8906,14.99997" id="Fill___QK0dr6V5" fill="#FFFFFF" fill-rule="nonzero"></path>
                <g id="Icon___QK0dr6V5">
                    <g id="Mask___QK0dr6V5" fill="#919EAB" fill-rule="nonzero">
                        <path d="M13.1071,6.0824 C11.9041,5.1264 10.3411,4.7824 8.8141,5.1374 C7.0251,5.5534 5.5881,6.9754 5.1511,8.7584 C4.7931,10.2234 5.0691,11.6904 5.9301,12.8884 C6.6301,13.8624 7.0001,14.9824 7.0001,16.1274 L7.0001,17.0004 C7.0001,18.6544 8.3461,20.0004 10.0001,20.0004 C11.6541,20.0004 13.0001,18.6544 13.0001,17.0004 L13.0001,16.1314 C13.0001,15.0324 13.3881,13.9014 14.1531,12.7694 C14.7071,11.9484 15.0001,10.9914 15.0001,10.0004 C15.0001,8.4654 14.3101,7.0384 13.1071,6.0824 L13.1071,6.0824 Z M19,9 L18,9 C17.447,9 17,9.447 17,10 C17,10.553 17.447,11 18,11 L19,11 C19.553,11 20,10.553 20,10 C20,9.447 19.553,9 19,9 L19,9 Z M2,9 L1,9 C0.447,9 0,9.447 0,10 C0,10.553 0.447,11 1,11 L2,11 C2.553,11 3,10.553 3,10 C3,9.447 2.553,9 2,9 L2,9 Z M10,3 C10.553,3 11,2.553 11,2 L11,1 C11,0.447 10.553,0 10,0 C9.447,0 9,0.447 9,1 L9,2 C9,2.553 9.447,3 10,3 L10,3 Z M17.707,2.293 C17.316,1.902 16.684,1.902 16.293,2.293 L15.293,3.293 C14.902,3.684 14.902,4.316 15.293,4.707 C15.488,4.902 15.744,5 16,5 C16.256,5 16.512,4.902 16.707,4.707 L17.707,3.707 C18.098,3.316 18.098,2.684 17.707,2.293 L17.707,2.293 Z M3.707,2.293 C3.316,1.902 2.684,1.902 2.293,2.293 C1.902,2.684 1.902,3.316 2.293,3.707 L3.293,4.707 C3.488,4.902 3.744,5 4,5 C4.256,5 4.512,4.902 4.707,4.707 C5.098,4.316 5.098,3.684 4.707,3.293 L3.707,2.293 Z M12.4961,11.6494 C11.9731,12.4234 11.5941,13.2094 11.3451,14.0004 L8.6731,14.0004 C8.4311,13.1984 8.0621,12.4284 7.5551,11.7214 C7.0401,11.0054 6.8771,10.1224 7.0951,9.2334 C7.3501,8.1924 8.2231,7.3284 9.2671,7.0854 C9.5171,7.0274 9.7641,6.9994 10.0071,6.9994 C10.6831,6.9994 11.3241,7.2204 11.8631,7.6484 C12.5861,8.2224 13.0001,9.0794 13.0001,10.0004 C13.0001,10.5904 12.8251,11.1614 12.4961,11.6494 L12.4961,11.6494 Z M11.0001,17.0004 C11.0001,17.5514 10.5521,18.0004 10.0001,18.0004 C9.4481,18.0004 9.0001,17.5514 9.0001,17.0004 L9.0001,16.1274 C9.0001,16.0844 8.9901,16.0434 8.9901,16.0004 L11.0111,16.0004 C11.0101,16.0444 11.0001,16.0874 11.0001,16.1314 L11.0001,17.0004 Z" id="path-1___QK0dr6V5"></path>
                    </g>
                    <g id="2-Tone/InkLightest___QK0dr6V5-Clipped">
                        <mask id="mask-2" fill="white">
                            <use xlink:href="#path-1"></use>
                        </mask>
                        <g id="path-1___QK0dr6V5"></g>
                    </g>
                </g>
            </g>
        </g>
    </g>
</svg>