
<svg width="32px" height="42px" viewBox="0 0 32 42" version="1.1" xmlns="http://www.w3.org/2000/svg" xmlns:xlink="http://www.w3.org/1999/xlink">
    <g id="Page-1" stroke="none" stroke-width="1" fill="none" fill-rule="evenodd">
        <g id="Apply-for-Loan-2" transform="translate(-326.000000, -641.000000)">
            <g id="pdf-icon-copy" transform="translate(326.000000, 641.000000)">
                <path d="M30.24,42 L1.26,42 C0.564121215,42 0,41.3982707 0,40.656 L0,1.344 C0,0.601729296 0.564121215,5.68434189e-14 1.26,5.68434189e-14 L22.798125,5.68434189e-14 L22.798125,7.65576 C22.798125,8.55390755 23.4807117,9.282 24.322725,9.282 L31.5,9.282 L31.5,40.656 C31.5,41.3982707 30.9358788,42 30.24,42 Z M23.625,7.056 L23.625,5.68434189e-14 L31.5,8.4 L24.885,8.4 C24.1891212,8.4 23.625,7.7982707 23.625,7.056 Z" id="Shape" fill="#348D77" fill-rule="nonzero"></path>
                <text id="JPG" font-family="Arial-BoldMT, Arial" font-size="12" font-weight="bold" fill="#FFFFFF">
                    <tspan x="3" y="25">JPG</tspan>
                </text>
            </g>
        </g>
    </g>
</svg>