<?xml version="1.0" encoding="UTF-8"?>
<svg width="171px" height="33px" viewBox="0 0 171 33" version="1.1" xmlns="http://www.w3.org/2000/svg" xmlns:xlink="http://www.w3.org/1999/xlink">
    <!-- Generator: Sketch 58 (84663) - https://sketch.com -->
    <title>Group 6</title>
    <desc>Created with Sketch.</desc>
    <g id="Page-1" stroke="none" stroke-width="1" fill="none" fill-rule="evenodd">
        <g id="Sign-up-Copy" transform="translate(-597.000000, -22.000000)">
            <g id="Group-6" transform="translate(597.000000, 22.000000)">
                <g id="logo-white">
                    <polygon id="Path" fill="#0668E3" fill-rule="nonzero" points="54.1204217 7.50498035 54.1204217 20.4008621 54.1204217 20.4008621 45.5584019 7.50498035 41.7530597 7.50498035 41.7530597 26.6373951 45.5584019 26.6373951 45.5584019 13.9529212 45.6641058 13.9529212 54.1204217 26.6373951 57.9257639 26.6373951 57.9257639 7.50498035"></polygon>
                    <path d="M68.1790469,26.848803 C72.1957969,26.848803 75.1555075,24.1005003 75.1555075,20.0837502 C75.1555075,16.0670002 72.1957969,13.3186975 68.1790469,13.3186975 C63.9508889,13.3186975 61.0968823,16.1727041 61.0968823,20.0837502 C61.0968823,23.9947963 63.9508889,26.848803 68.1790469,26.848803 Z M68.1790469,23.6776845 C66.1706719,23.6776845 64.6908166,22.0921253 64.6908166,20.0837502 C64.6908166,17.9696713 66.0649679,16.384112 68.1790469,16.384112 C70.081718,16.384112 71.5615732,17.8639673 71.5615732,20.0837502 C71.5615732,22.1978292 70.081718,23.6776845 68.1790469,23.6776845 Z" id="1" fill="#0668E3" fill-rule="nonzero"></path>
                    <path d="M87.5228695,6.76505271 L87.5228695,15.0099607 L87.4171655,15.0099607 C86.46583,13.8472173 85.0916787,13.3186975 83.5061194,13.3186975 C79.9121852,13.3186975 77.2695865,16.0670002 77.2695865,20.0837502 C77.2695865,24.2062042 79.9121852,26.848803 83.6118234,26.848803 C85.3030866,26.848803 86.6772379,26.2145793 87.6285734,25.0518358 L87.6285734,25.0518358 L87.6285734,26.6373951 L91.0110998,26.6373951 L91.0110998,6.76505271 L87.5228695,6.76505271 Z M84.2460471,23.6776845 C82.237672,23.6776845 80.8635207,22.3035332 80.8635207,20.0837502 C80.8635207,17.8639673 82.343376,16.384112 84.2460471,16.384112 C86.2544221,16.384112 87.7342774,18.0753752 87.7342774,20.0837502 C87.7342774,22.3035332 86.1487181,23.6776845 84.2460471,23.6776845 Z" id="2" fill="#0668E3" fill-rule="nonzero"></path>
                    <path d="M103.906982,26.848803 C107.289508,26.848803 109.932107,25.2632437 111.517666,23.2548687 L108.769363,20.8236779 C107.60662,22.1978292 105.915357,23.2548687 103.906982,23.2548687 C100.524455,23.2548687 98.0932643,20.7179739 98.0932643,17.1240397 C98.0932643,13.3186975 100.630159,10.8875067 103.906982,10.8875067 C105.915357,10.8875067 107.60662,11.9445462 108.769363,13.3186975 L111.517666,10.8875067 C109.403587,8.35061194 106.54958,7.29357246 103.906982,7.29357246 C97.6704485,7.29357246 94.1822182,11.6274344 94.1822182,17.1240397 C94.1822182,23.4662766 98.6217841,26.848803 103.906982,26.848803 Z" id="3" fill="#0668E3" fill-rule="nonzero"></path>
                    <path d="M121.770949,13.3186975 C120.18539,13.3186975 118.705534,14.0586252 117.754199,15.4327765 L117.754199,15.4327765 L117.754199,13.5301054 L114.160265,13.5301054 L114.160265,26.6373951 L117.754199,26.6373951 L117.754199,20.506566 C117.754199,18.603895 118.916942,17.1240397 121.136725,17.1240397 C121.242429,17.1240397 121.665245,17.1240397 121.982357,17.1240397 L121.982357,13.3186975 C121.982357,13.3186975 121.876653,13.3186975 121.770949,13.3186975 L121.770949,13.3186975 Z" id="4" fill="#0668E3" fill-rule="nonzero"></path>
                    <path d="M136.25239,19.9780463 C136.25239,16.0670002 133.715495,13.3186975 129.804449,13.3186975 C126.104811,13.3186975 123.250804,16.0670002 123.250804,20.0837502 C123.250804,24.2062042 126.210515,26.848803 130.015857,26.848803 C132.658456,26.848803 134.561127,25.7917635 135.72387,24.4176121 L133.398383,22.3035332 C132.764159,23.1491648 131.70712,23.7833884 130.332969,23.7833884 C128.641705,23.7833884 127.373258,22.726349 126.950442,21.2464937 L136.146686,21.2464937 C136.25239,21.0350858 136.25239,20.4008621 136.25239,19.9780463 Z M129.910153,16.384112 C131.495712,16.384112 132.447048,17.3354476 132.764159,18.7095989 L126.950442,18.7095989 C127.373258,17.1240397 128.536002,16.384112 129.910153,16.384112 Z" id="5" fill="#0668E3" fill-rule="nonzero"></path>
                    <path d="M148.619752,6.76505271 L148.619752,15.0099607 L148.514048,15.0099607 C147.562712,13.8472173 146.188561,13.3186975 144.603002,13.3186975 C141.009067,13.3186975 138.366469,16.0670002 138.366469,20.0837502 C138.366469,24.2062042 141.009067,26.848803 144.708706,26.848803 C146.399969,26.848803 147.77412,26.2145793 148.725456,25.0518358 L148.725456,25.0518358 L148.725456,26.6373951 L152.107982,26.6373951 L152.107982,6.76505271 L148.619752,6.76505271 Z M145.342929,23.6776845 C143.334554,23.6776845 141.960403,22.3035332 141.960403,20.0837502 C141.960403,17.8639673 143.440258,16.384112 145.342929,16.384112 C147.351304,16.384112 148.83116,18.0753752 148.83116,20.0837502 C148.83116,22.3035332 147.2456,23.6776845 145.342929,23.6776845 Z" id="6" fill="#0668E3" fill-rule="nonzero"></path>
                    <path d="M157.604587,11.6274344 C158.873035,11.6274344 159.82437,10.6760988 159.82437,9.51335538 C159.82437,8.24490799 158.873035,7.29357246 157.604587,7.29357246 C156.441844,7.29357246 155.490508,8.24490799 155.490508,9.51335538 C155.490508,10.6760988 156.441844,11.6274344 157.604587,11.6274344 Z M155.913324,26.6373951 L159.401555,26.6373951 L159.401555,13.5301054 L155.913324,13.5301054 L155.913324,26.6373951 Z" id="7" fill="#0668E3" fill-rule="nonzero"></path>
                    <path d="M167.117943,26.848803 C168.91491,26.848803 169.760542,26.5316911 170.606173,26.1088753 L169.760542,23.2548687 C169.126318,23.5719805 168.492094,23.6776845 168.069278,23.6776845 C167.223647,23.6776845 166.906535,23.1491648 166.906535,21.9864213 L166.906535,16.384112 L170.500469,16.384112 L170.500469,13.5301054 L166.906535,13.5301054 L166.906535,8.77342774 L163.418305,9.19624353 L163.418305,13.5301054 L161.832745,13.5301054 L161.832745,16.384112 L163.418305,16.384112 L163.418305,22.5149411 C163.418305,25.4746516 164.89816,26.848803 167.117943,26.848803 Z" id="8" fill="#0668E3" fill-rule="nonzero"></path>
                    <path d="M32.5568162,16.2784081 C32.5568162,25.2632437 25.2632437,32.5568162 16.2784081,32.5568162 C7.29357246,32.5568162 0,25.2632437 0,16.2784081 C0,7.29357246 7.29357246,0 16.2784081,0 C25.2632437,0 32.5568162,7.29357246 32.5568162,16.2784081 Z" id="Path" fill="#0668E3"></path>
                    <path d="M12.1559541,23.6776845 L20.506566,32.0282964 C27.4830266,30.2313293 32.5568162,23.8890924 32.5568162,16.2784081 L32.5568162,15.8555923 L26.0031714,9.72476328 L12.1559541,23.6776845 Z" id="Path" fill-opacity="0.23789882" fill="#E6E7E8"></path>
                    <path d="M22.4092371,8.56201984 C23.1491648,7.8220922 24.4176121,7.8220922 25.0518358,8.56201984 L26.5316911,10.0418751 C27.2716187,10.7818028 27.2716187,12.0502501 26.5316911,12.7901778 L16.9126318,22.4092371 C16.9126318,22.4092371 16.8069278,22.5149411 16.7012239,22.620645 L15.2213686,24.1005003 C14.481441,24.8404279 13.3186975,24.8404279 12.5787699,24.1005003 L6.02512507,17.5468555 C5.28519743,16.8069278 5.28519743,15.5384805 6.02512507,14.9042568 L7.50498035,13.3186975 C8.24490799,12.6844738 9.51335538,12.6844738 10.1475791,13.3186975 L13.8472173,17.1240397 L22.4092371,8.56201984 Z" id="Path" fill="#FFFFFF"></path>
                </g>
            </g>
        </g>
    </g>
</svg>