
<svg width="32px" height="42px" viewBox="0 0 32 42" version="1.1" xmlns="http://www.w3.org/2000/svg" xmlns:xlink="http://www.w3.org/1999/xlink">
    <g id="Page-1" stroke="none" stroke-width="1" fill="none" fill-rule="evenodd">
        <g id="Apply-for-Loan-2" transform="translate(-324.000000, -582.000000)" fill="#EB0000" fill-rule="nonzero">
            <g id="pdf-icon" transform="translate(324.000000, 582.000000)">
                <path d="M30.24,42 L1.26,42 C0.564121215,42 0,41.3982707 0,40.656 L0,1.344 C0,0.601729296 0.564121215,5.68434189e-14 1.26,5.68434189e-14 L22.798125,5.68434189e-14 L22.798125,7.65576 C22.798125,8.55390755 23.4807117,9.282 24.322725,9.282 L31.5,9.282 L31.5,40.656 C31.5,41.3982707 30.9358788,42 30.24,42 Z M5.677245,27.216 L7.278075,27.216 L7.278075,24.88752 L8.49429,24.88752 C10.126305,24.88752 11.436075,23.956128 11.436075,22.159872 L11.436075,22.137696 C11.436075,20.552112 10.38618,19.4544 8.650215,19.4544 L5.677245,19.4544 L5.677245,27.216 Z M7.278075,23.368464 L7.278075,20.995632 L8.51508,20.995632 C9.315495,20.995632 9.814455,21.405888 9.814455,22.17096 L9.814455,22.193136 C9.814455,22.858416 9.34668,23.368464 8.546265,23.368464 L7.278075,23.368464 Z M12.621105,27.216 L15.45894,27.216 C17.74584,27.216 19.32588,25.519536 19.32588,23.3352 L19.32588,23.313024 C19.32588,21.128688 17.74584,19.4544 15.45894,19.4544 L12.621105,19.4544 L12.621105,27.216 Z M15.45894,20.995632 C16.76871,20.995632 17.652285,21.960288 17.652285,23.3352 L17.652285,23.357376 C17.652285,24.732288 16.76871,25.674768 15.45894,25.674768 L14.221935,25.674768 L14.221935,20.995632 L15.45894,20.995632 Z M20.749995,27.216 L22.350825,27.216 L22.350825,24.211152 L25.822755,24.211152 L25.822755,22.658832 L22.350825,22.658832 L22.350825,21.00672 L26.29053,21.00672 L26.29053,19.4544 L20.749995,19.4544 L20.749995,27.216 Z M23.625,7.056 L23.625,5.68434189e-14 L31.5,8.4 L24.885,8.4 C24.1891212,8.4 23.625,7.7982707 23.625,7.056 Z" id="Shape"></path>
            </g>
        </g>
    </g>
</svg>