
<svg width="49px" height="52px" viewBox="0 0 49 52" version="1.1" xmlns="http://www.w3.org/2000/svg" xmlns:xlink="http://www.w3.org/1999/xlink">
    <g id="Page-1" stroke="none" stroke-width="1" fill="none" fill-rule="evenodd">
        <g id="Investor-Dashboard" transform="translate(-1020.000000, -613.000000)" fill="#FFFFFF" fill-rule="nonzero">
            <g id="Group-12" transform="translate(1020.000000, 599.000000)">
                <g id="headphones" transform="translate(0.000000, 14.000000)">
                    <path d="M42.323602,19.7731092 L42.323602,17.7739496 C42.323602,12.9890756 40.6271556,8.54285714 37.5516624,5.24369748 C34.3995555,1.85714286 30.0654085,0 25.3372482,0 L23.684581,0 C18.9564207,0 14.6222737,1.85714286 11.4701668,5.24369748 C8.39467359,8.54285714 6.69822716,12.9890756 6.69822716,17.7739496 L6.69822716,19.7731092 C2.96604503,20.0243697 0,23.1268908 0,26.9176471 L0,30.0420168 C0,33.9857143 3.21777579,37.197479 7.16885424,37.197479 L11.2074912,37.197479 C11.929849,37.197479 12.5208691,36.607563 12.5208691,35.8865546 L12.5208691,21.0621849 C12.5208691,20.3411765 11.929849,19.7512605 11.2074912,19.7512605 L9.32498291,19.7512605 L9.32498291,17.7739496 C9.32498291,9.13277311 15.4978589,2.62184874 23.6736362,2.62184874 L25.3263034,2.62184874 C33.5130254,2.62184874 39.6749566,9.13277311 39.6749566,17.7739496 L39.6749566,19.7512605 L37.7924484,19.7512605 C37.0700905,19.7512605 36.4790705,20.3411765 36.4790705,21.0621849 L36.4790705,35.8756303 C36.4790705,36.5966387 37.0700905,37.1865546 37.7924484,37.1865546 L39.6311774,37.1865546 C39.0948814,44.0252101 34.3776659,45.6092437 32.1887028,45.9697479 C31.5867379,44.1235294 29.8465122,42.7907563 27.7998317,42.7907563 L24.516387,42.7907563 C21.9771898,42.7907563 19.9086196,44.8554622 19.9086196,47.389916 C19.9086196,49.9243697 21.9771898,52 24.516387,52 L27.8107765,52 C29.9340707,52 31.7180757,50.5579832 32.2543717,48.6134454 C33.3269636,48.4605042 35.02341,48.0781513 36.7089116,47.094958 C39.0839366,45.707563 41.8967542,42.8781513 42.2688779,37.1756303 C46.0229497,36.9462185 48.9999699,33.8327731 48.9999699,30.0310924 L48.9999699,26.9067227 C49.0108844,23.1268908 46.0557842,20.0134454 42.323602,19.7731092 Z M9.91600296,34.5647059 L7.19074387,34.5647059 C4.68438109,34.5647059 2.64864538,32.5327731 2.64864538,30.0310924 L2.64864538,26.9067227 C2.64864538,24.405042 4.68438109,22.3731092 7.19074387,22.3731092 L9.91600296,22.3731092 L9.91600296,34.5647059 Z M27.8107765,49.3781513 L24.516387,49.3781513 C23.4219054,49.3781513 22.5353754,48.4932773 22.5353754,47.4008403 C22.5353754,46.3084034 23.4219054,45.4235294 24.516387,45.4235294 L27.8107765,45.4235294 C28.9052581,45.4235294 29.7917881,46.3084034 29.7917881,47.4008403 C29.7917881,48.4932773 28.9052581,49.3781513 27.8107765,49.3781513 Z M46.3841286,30.0310924 C46.3841286,32.5327731 44.3483929,34.5647059 41.8420301,34.5647059 L39.116771,34.5647059 L39.116771,22.3731092 L41.8420301,22.3731092 C44.3483929,22.3731092 46.3841286,24.405042 46.3841286,26.9067227 L46.3841286,30.0310924 Z" id="Shape"></path>
                </g>
            </g>
        </g>
    </g>
</svg>